<svg width="24" height="24" viewBox="0 0 24 24" fill="none" xmlns="http://www.w3.org/2000/svg">
<path d="M11.9999 22.0002C6.49992 22.0002 1.99992 17.5002 1.99992 12.0002C1.99992 6.50024 6.49992 2.00024 11.9999 2.00024C17.4999 2.00024 21.9999 6.50024 21.9999 12.0002C21.9999 17.5002 17.4999 22.0002 11.9999 22.0002Z" fill="url(#paint0_linear_2801_9104)"/>
<path d="M16.8999 13.0001H11.9999C11.3999 13.0001 10.9999 12.6001 10.9999 12.0001V7.1001C10.9999 6.5001 11.3999 6.1001 11.9999 6.1001C12.5999 6.1001 12.9999 6.5001 12.9999 7.1001V11.0001H16.8999C17.4999 11.0001 17.8999 11.4001 17.8999 12.0001C17.8999 12.6001 17.4999 13.0001 16.8999 13.0001Z" fill="white"/>
<defs>
<linearGradient id="paint0_linear_2801_9104" x1="4.24992" y1="15.6366" x2="10.6299" y2="2.09709" gradientUnits="userSpaceOnUse">
<stop stop-color="#7A58CB"/>
<stop offset="1" stop-color="#1A94FF"/>
</linearGradient>
</defs>
</svg>
